<svg xmlns="http://www.w3.org/2000/svg" width="600" height="400" viewBox="0 0 600 400">
  <defs>
    <linearGradient id="bg" x1="0%" y1="0%" x2="100%" y2="100%">
      <stop offset="0%" style="stop-color:#1A1A2E"/>
      <stop offset="100%" style="stop-color:#242442"/>
    </linearGradient>
    <linearGradient id="teal" x1="0%" y1="0%" x2="100%" y2="100%">
      <stop offset="0%" style="stop-color:#4DB6AC"/>
      <stop offset="100%" style="stop-color:#2E7D52"/>
    </linearGradient>
  </defs>
  <rect width="600" height="400" fill="url(#bg)"/>
  <!-- Top bar -->
  <rect x="0" y="0" width="600" height="56" fill="rgba(255,255,255,0.04)" stroke="rgba(255,255,255,0.06)" stroke-width="1"/>
  <rect x="20" y="20" width="100" height="14" rx="7" fill="url(#teal)" opacity="0.8"/>
  <!-- Streak / stats -->
  <rect x="20" y="76" width="170" height="90" rx="14" fill="rgba(255,255,255,0.06)" stroke="rgba(255,255,255,0.08)" stroke-width="1"/>
  <circle cx="60" cy="110" r="18" fill="url(#teal)" opacity="0.3"/>
  <rect x="88" y="100" width="80" height="10" rx="5" fill="rgba(255,255,255,0.15)"/>
  <rect x="88" y="118" width="60" height="8" rx="4" fill="url(#teal)" opacity="0.5"/>
  <rect x="210" y="76" width="170" height="90" rx="14" fill="rgba(255,255,255,0.06)" stroke="rgba(255,255,255,0.08)" stroke-width="1"/>
  <circle cx="250" cy="110" r="18" fill="url(#teal)" opacity="0.3"/>
  <rect x="278" y="100" width="80" height="10" rx="5" fill="rgba(255,255,255,0.15)"/>
  <rect x="278" y="118" width="60" height="8" rx="4" fill="url(#teal)" opacity="0.5"/>
  <rect x="400" y="76" width="170" height="90" rx="14" fill="rgba(255,255,255,0.06)" stroke="rgba(255,255,255,0.08)" stroke-width="1"/>
  <circle cx="440" cy="110" r="18" fill="url(#teal)" opacity="0.3"/>
  <rect x="468" y="100" width="80" height="10" rx="5" fill="rgba(255,255,255,0.15)"/>
  <rect x="468" y="118" width="60" height="8" rx="4" fill="url(#teal)" opacity="0.5"/>
  <!-- Habits with checkboxes -->
  <rect x="20" y="186" width="550" height="54" rx="12" fill="rgba(255,255,255,0.04)" stroke="rgba(255,255,255,0.06)" stroke-width="1"/>
  <rect x="40" y="202" width="22" height="22" rx="6" fill="url(#teal)" opacity="0.5"/>
  <rect x="76" y="206" width="160" height="10" rx="5" fill="rgba(255,255,255,0.15)"/>
  <rect x="20" y="250" width="550" height="54" rx="12" fill="rgba(255,255,255,0.04)" stroke="rgba(255,255,255,0.06)" stroke-width="1"/>
  <rect x="40" y="266" width="22" height="22" rx="6" stroke="rgba(255,255,255,0.15)" stroke-width="2" fill="none"/>
  <rect x="76" y="270" width="200" height="10" rx="5" fill="rgba(255,255,255,0.15)"/>
  <rect x="20" y="314" width="550" height="54" rx="12" fill="rgba(255,255,255,0.04)" stroke="rgba(255,255,255,0.06)" stroke-width="1"/>
  <rect x="40" y="330" width="22" height="22" rx="6" stroke="rgba(255,255,255,0.15)" stroke-width="2" fill="none"/>
  <rect x="76" y="334" width="140" height="10" rx="5" fill="rgba(255,255,255,0.15)"/>
  <!-- Decorative orb -->
  <circle cx="520" cy="350" r="80" fill="#4DB6AC" opacity="0.05"/>
</svg>
